# Blender 4.5.9 LTS
# www.blender.org
mtllib baseplate_L.mtl
o Gridfinity_Lip_1x1
v -0.008000 -0.000000 0.000000
v 0.000000 -0.000000 0.008000
v -0.007607 -0.000000 0.000010
v -0.007216 -0.000000 0.000039
v -0.006826 -0.000000 0.000087
v -0.006439 -0.000000 0.000154
v -0.006056 -0.000000 0.000240
v -0.005678 -0.000000 0.000344
v -0.005305 -0.000000 0.000468
v -0.004939 -0.000000 0.000609
v -0.004580 -0.000000 0.000768
v -0.004229 -0.000000 0.000945
v -0.003887 -0.000000 0.001138
v -0.003555 -0.000000 0.001348
v -0.003234 -0.000000 0.001574
v -0.002925 -0.000000 0.001816
v -0.002628 -0.000000 0.002072
v -0.002343 -0.000000 0.002343
v -0.002072 -0.000000 0.002628
v -0.001816 -0.000000 0.002925
v -0.001574 -0.000000 0.003234
v -0.001348 -0.000000 0.003555
v -0.001138 -0.000000 0.003887
v -0.000945 -0.000000 0.004229
v -0.000768 -0.000000 0.004580
v -0.000609 -0.000000 0.004939
v -0.000468 -0.000000 0.005305
v -0.000344 -0.000000 0.005678
v -0.000240 -0.000000 0.006056
v -0.000154 -0.000000 0.006439
v -0.000087 -0.000000 0.006826
v -0.000039 -0.000000 0.007216
v -0.000010 -0.000000 0.007607
v -0.002150 0.002850 0.008026
v -0.002157 0.002850 0.007713
v -0.002178 0.002850 0.007427
v -0.002213 0.002850 0.007142
v -0.002262 0.002850 0.006859
v -0.002325 0.002850 0.006579
v -0.002402 0.002850 0.006302
v -0.002492 0.002850 0.006029
v -0.002595 0.002850 0.005761
v -0.002712 0.002850 0.005499
v -0.002841 0.002850 0.005242
v -0.002982 0.002850 0.004993
v -0.003136 0.002850 0.004750
v -0.003301 0.002850 0.004515
v -0.003478 0.002850 0.004289
v -0.003665 0.002850 0.004071
v -0.003863 0.002850 0.003863
v -0.004071 0.002850 0.003665
v -0.004289 0.002850 0.003478
v -0.004515 0.002850 0.003301
v -0.004750 0.002850 0.003136
v -0.004993 0.002850 0.002982
v -0.005242 0.002850 0.002841
v -0.005499 0.002850 0.002712
v -0.005761 0.002850 0.002595
v -0.006029 0.002850 0.002492
v -0.006302 0.002850 0.002402
v -0.006579 0.002850 0.002325
v -0.006859 0.002850 0.002262
v -0.007142 0.002850 0.002213
v -0.007427 0.002850 0.002178
v -0.007713 0.002850 0.002157
v -0.008026 0.002850 0.002150
v 0.000000 0.005000 0.008000
v -0.000010 0.005000 0.007607
v -0.000039 0.005000 0.007216
v -0.000087 0.005000 0.006826
v -0.000154 0.005000 0.006439
v -0.000240 0.005000 0.006056
v -0.000344 0.005000 0.005678
v -0.000468 0.005000 0.005305
v -0.000609 0.005000 0.004939
v -0.000768 0.005000 0.004580
v -0.000945 0.005000 0.004229
v -0.001138 0.005000 0.003887
v -0.001348 0.005000 0.003555
v -0.001574 0.005000 0.003234
v -0.001816 0.005000 0.002925
v -0.002072 0.005000 0.002628
v -0.002343 0.005000 0.002343
v -0.002628 0.005000 0.002072
v -0.002925 0.005000 0.001816
v -0.003234 0.005000 0.001574
v -0.003555 0.005000 0.001348
v -0.003887 0.005000 0.001138
v -0.004229 0.005000 0.000945
v -0.004580 0.005000 0.000768
v -0.004939 0.005000 0.000609
v -0.005305 0.005000 0.000468
v -0.005678 0.005000 0.000344
v -0.006056 0.005000 0.000240
v -0.006439 0.005000 0.000154
v -0.006826 0.005000 0.000087
v -0.007216 0.005000 0.000039
v -0.007607 0.005000 0.000010
v -0.008000 0.005000 0.000000
v -0.002150 0.000800 0.008026
v -0.002950 -0.000000 0.008027
v -0.002157 0.000800 0.007713
v -0.002956 -0.000000 0.007752
v -0.002178 0.000800 0.007427
v -0.002975 -0.000000 0.007505
v -0.002213 0.000800 0.007142
v -0.003005 -0.000000 0.007259
v -0.002262 0.000800 0.006859
v -0.003047 -0.000000 0.007015
v -0.002325 0.000800 0.006579
v -0.003102 -0.000000 0.006773
v -0.002402 0.000800 0.006302
v -0.003168 -0.000000 0.006534
v -0.002492 0.000800 0.006029
v -0.003245 -0.000000 0.006299
v -0.002595 0.000800 0.005761
v -0.003335 -0.000000 0.006068
v -0.002712 0.000800 0.005499
v -0.003435 -0.000000 0.005841
v -0.002841 0.000800 0.005242
v -0.003547 -0.000000 0.005620
v -0.002982 0.000800 0.004993
v -0.003669 -0.000000 0.005404
v -0.003136 0.000800 0.004750
v -0.003801 -0.000000 0.005195
v -0.003301 0.000800 0.004515
v -0.003944 -0.000000 0.004992
v -0.003478 0.000800 0.004289
v -0.004096 -0.000000 0.004796
v -0.003665 0.000800 0.004071
v -0.004258 -0.000000 0.004609
v -0.003863 0.000800 0.003863
v -0.004429 -0.000000 0.004429
v -0.004071 0.000800 0.003665
v -0.004609 -0.000000 0.004258
v -0.004289 0.000800 0.003478
v -0.004796 -0.000000 0.004096
v -0.004515 0.000800 0.003301
v -0.004992 -0.000000 0.003944
v -0.004750 0.000800 0.003136
v -0.005195 -0.000000 0.003801
v -0.004993 0.000800 0.002982
v -0.005404 -0.000000 0.003669
v -0.005242 0.000800 0.002841
v -0.005620 -0.000000 0.003547
v -0.005499 0.000800 0.002712
v -0.005841 -0.000000 0.003435
v -0.005761 0.000800 0.002595
v -0.006068 -0.000000 0.003335
v -0.006029 0.000800 0.002492
v -0.006299 -0.000000 0.003245
v -0.006302 0.000800 0.002402
v -0.006534 -0.000000 0.003168
v -0.006579 0.000800 0.002325
v -0.006773 -0.000000 0.003102
v -0.006859 0.000800 0.002262
v -0.007015 -0.000000 0.003047
v -0.007142 0.000800 0.002213
v -0.007259 -0.000000 0.003005
v -0.007427 0.000800 0.002178
v -0.007505 -0.000000 0.002975
v -0.007713 0.000800 0.002157
v -0.007752 -0.000000 0.002956
v -0.008026 0.000800 0.002150
v -0.008027 -0.000000 0.002950
v -0.002150 0.002850 0.021000
v 0.000000 0.005000 0.021000
v -0.021022 0.002850 0.002150
v -0.021035 0.005000 0.000000
v -0.021022 0.000800 0.002150
v -0.002150 0.000800 0.021000
v -0.002950 0.000000 0.021000
v 0.000000 0.000000 0.021000
v -0.021018 -0.000000 0.002950
v -0.021035 -0.000000 0.000000
vn -0.7071 0.7071 -0.0000
vn -0.7070 0.7070 0.0170
vn -0.7054 0.7069 0.0521
vn -0.7019 0.7070 0.0866
vn -0.6969 0.7069 0.1207
vn -0.6901 0.7069 0.1551
vn -0.6817 0.7070 0.1884
vn -0.6713 0.7070 0.2224
vn -0.6601 0.7069 0.2540
vn -0.6465 0.7070 0.2865
vn -0.6317 0.7070 0.3179
vn -0.6154 0.7070 0.3485
vn -0.5975 0.7071 0.3782
vn -0.5782 0.7070 0.4072
vn -0.5574 0.7070 0.4352
vn -0.5354 0.7070 0.4620
vn -0.5125 0.7069 0.4875
vn -0.4875 0.7069 0.5125
vn -0.4619 0.7070 0.5355
vn -0.4351 0.7070 0.5575
vn -0.4072 0.7070 0.5782
vn -0.3782 0.7071 0.5975
vn -0.3485 0.7070 0.6154
vn -0.3179 0.7070 0.6317
vn -0.2866 0.7070 0.6465
vn -0.2544 0.7070 0.6599
vn -0.2221 0.7070 0.6714
vn -0.1884 0.7070 0.6817
vn -0.1547 0.7072 0.6899
vn -0.1207 0.7069 0.6969
vn -0.0867 0.7070 0.7018
vn -0.0521 0.7069 0.7054
vn -0.0170 0.7070 0.7070
vn -0.0000 0.7071 0.7071
vn -0.4927 -0.0000 0.8702
vn -0.4496 -0.0000 0.8932
vn -0.4052 -0.0000 0.9142
vn -0.3599 -0.0000 0.9330
vn -0.3131 -0.0000 0.9497
vn -0.2667 -0.0000 0.9638
vn -0.2195 -0.0000 0.9756
vn -0.1706 -0.0000 0.9853
vn -0.1219 -0.0000 0.9925
vn -0.0738 -0.0000 0.9973
vn -0.0224 -0.0000 0.9997
vn -0.0000 -0.0000 1.0000
vn -1.0000 -0.0000 -0.0000
vn -0.9997 -0.0000 0.0227
vn -0.9973 -0.0000 0.0736
vn -0.9925 -0.0000 0.1224
vn -0.9853 -0.0000 0.1706
vn -0.9756 -0.0000 0.2195
vn -0.9638 -0.0000 0.2667
vn -0.9496 -0.0000 0.3135
vn -0.9330 -0.0000 0.3600
vn -0.9142 -0.0000 0.4052
vn -0.8932 -0.0000 0.4496
vn -0.8702 -0.0000 0.4928
vn -0.8449 -0.0000 0.5349
vn -0.8176 -0.0000 0.5758
vn -0.7884 -0.0000 0.6152
vn -0.7572 -0.0000 0.6532
vn -0.7243 -0.0000 0.6895
vn -0.6895 -0.0000 0.7243
vn -0.6532 -0.0000 0.7572
vn -0.6153 -0.0000 0.7883
vn -0.5758 -0.0000 0.8176
vn -0.5353 -0.0000 0.8447
vn -0.0000 -1.0000 -0.0000
vn -0.7070 0.7070 0.0156
vn -0.7052 0.7071 0.0522
vn -0.7018 0.7071 0.0866
vn -0.6967 0.7071 0.1206
vn -0.6899 0.7071 0.1549
vn -0.6813 0.7073 0.1888
vn -0.6716 0.7071 0.2214
vn -0.6597 0.7071 0.2545
vn -0.6462 0.7072 0.2868
vn -0.6316 0.7071 0.3179
vn -0.6153 0.7073 0.3480
vn -0.5975 0.7072 0.3781
vn -0.5780 0.7071 0.4073
vn -0.5577 0.7070 0.4348
vn -0.5355 0.7071 0.4618
vn -0.5122 0.7070 0.4876
vn -0.4876 0.7071 0.5121
vn -0.4617 0.7070 0.5357
vn -0.4348 0.7070 0.5577
vn -0.4067 0.7072 0.5784
vn -0.3785 0.7071 0.5973
vn -0.3486 0.7071 0.6152
vn -0.3179 0.7071 0.6316
vn -0.2868 0.7072 0.6462
vn -0.2545 0.7071 0.6597
vn -0.2219 0.7071 0.6714
vn -0.1888 0.7073 0.6813
vn -0.1550 0.7071 0.6899
vn -0.1203 0.7072 0.6967
vn -0.0868 0.7071 0.7018
vn -0.0529 0.7072 0.7051
vn -0.0163 0.7071 0.7070
vn 1.0000 -0.0000 -0.0000
vn 0.9997 -0.0000 -0.0245
vn 0.9973 -0.0000 -0.0736
vn 0.9925 -0.0000 -0.1222
vn 0.9853 -0.0000 -0.1706
vn 0.9757 -0.0000 -0.2191
vn 0.9638 -0.0000 -0.2667
vn 0.9495 -0.0000 -0.3137
vn 0.9330 -0.0000 -0.3599
vn 0.9143 -0.0000 -0.4050
vn 0.8932 -0.0000 -0.4497
vn 0.8702 -0.0000 -0.4928
vn 0.8449 -0.0000 -0.5350
vn 0.8177 -0.0000 -0.5757
vn 0.7884 -0.0000 -0.6152
vn 0.7575 -0.0000 -0.6529
vn 0.7247 -0.0000 -0.6891
vn 0.6898 -0.0000 -0.7240
vn 0.6529 -0.0000 -0.7575
vn 0.6152 -0.0000 -0.7884
vn 0.5757 -0.0000 -0.8177
vn 0.5346 -0.0000 -0.8451
vn 0.4929 -0.0000 -0.8701
vn 0.4496 -0.0000 -0.8932
vn 0.4050 -0.0000 -0.9143
vn 0.3599 -0.0000 -0.9330
vn 0.3137 -0.0000 -0.9495
vn 0.2667 -0.0000 -0.9638
vn 0.2191 -0.0000 -0.9757
vn 0.1706 -0.0000 -0.9853
vn 0.1222 -0.0000 -0.9925
vn 0.0740 -0.0000 -0.9973
vn 0.0248 -0.0000 -0.9997
vn -0.0000 -0.0000 -1.0000
vt 0.000000 0.000000
s 1
f 67/1/1 34/1/1 166/1/1 167/1/1
f 35/1/2 34/1/2 67/1/2 68/1/2
f 36/1/3 35/1/3 68/1/3 69/1/3
f 37/1/4 36/1/4 69/1/4 70/1/4
f 38/1/5 37/1/5 70/1/5 71/1/5
f 39/1/6 38/1/6 71/1/6 72/1/6
f 40/1/7 39/1/7 72/1/7 73/1/7
f 41/1/8 40/1/8 73/1/8 74/1/8
f 42/1/9 41/1/9 74/1/9 75/1/9
f 43/1/10 42/1/10 75/1/10 76/1/10
f 44/1/11 43/1/11 76/1/11 77/1/11
f 45/1/12 44/1/12 77/1/12 78/1/12
f 46/1/13 45/1/13 78/1/13 79/1/13
f 47/1/14 46/1/14 79/1/14 80/1/14
f 48/1/15 47/1/15 80/1/15 81/1/15
f 49/1/16 48/1/16 81/1/16 82/1/16
f 50/1/17 49/1/17 82/1/17 83/1/17
f 51/1/18 50/1/18 83/1/18 84/1/18
f 52/1/19 51/1/19 84/1/19 85/1/19
f 53/1/20 52/1/20 85/1/20 86/1/20
f 54/1/21 53/1/21 86/1/21 87/1/21
f 55/1/22 54/1/22 87/1/22 88/1/22
f 56/1/23 55/1/23 88/1/23 89/1/23
f 57/1/24 56/1/24 89/1/24 90/1/24
f 58/1/25 57/1/25 90/1/25 91/1/25
f 59/1/26 58/1/26 91/1/26 92/1/26
f 60/1/27 59/1/27 92/1/27 93/1/27
f 61/1/28 60/1/28 93/1/28 94/1/28
f 62/1/29 61/1/29 94/1/29 95/1/29
f 63/1/30 62/1/30 95/1/30 96/1/30
f 64/1/31 63/1/31 96/1/31 97/1/31
f 65/1/32 64/1/32 97/1/32 98/1/32
f 66/1/33 65/1/33 98/1/33 99/1/33
f 168/1/34 66/1/34 99/1/34 169/1/34
f 56/1/35 144/1/35 142/1/35 55/1/35
f 57/1/36 146/1/36 144/1/36 56/1/36
f 58/1/37 148/1/37 146/1/37 57/1/37
f 59/1/38 150/1/38 148/1/38 58/1/38
f 60/1/39 152/1/39 150/1/39 59/1/39
f 61/1/40 154/1/40 152/1/40 60/1/40
f 62/1/41 156/1/41 154/1/41 61/1/41
f 63/1/42 158/1/42 156/1/42 62/1/42
f 64/1/43 160/1/43 158/1/43 63/1/43
f 65/1/44 162/1/44 160/1/44 64/1/44
f 66/1/45 164/1/45 162/1/45 65/1/45
f 170/1/46 164/1/46 66/1/46 168/1/46
f 166/1/47 34/1/47 100/1/47 171/1/47
f 35/1/48 102/1/48 100/1/48 34/1/48
f 36/1/49 104/1/49 102/1/49 35/1/49
f 37/1/50 106/1/50 104/1/50 36/1/50
f 38/1/51 108/1/51 106/1/51 37/1/51
f 39/1/52 110/1/52 108/1/52 38/1/52
f 40/1/53 112/1/53 110/1/53 39/1/53
f 41/1/54 114/1/54 112/1/54 40/1/54
f 42/1/55 116/1/55 114/1/55 41/1/55
f 43/1/56 118/1/56 116/1/56 42/1/56
f 44/1/57 120/1/57 118/1/57 43/1/57
f 45/1/58 122/1/58 120/1/58 44/1/58
f 46/1/59 124/1/59 122/1/59 45/1/59
f 47/1/60 126/1/60 124/1/60 46/1/60
f 48/1/61 128/1/61 126/1/61 47/1/61
f 49/1/62 130/1/62 128/1/62 48/1/62
f 50/1/63 132/1/63 130/1/63 49/1/63
f 51/1/64 134/1/64 132/1/64 50/1/64
f 52/1/65 136/1/65 134/1/65 51/1/65
f 53/1/66 138/1/66 136/1/66 52/1/66
f 54/1/67 140/1/67 138/1/67 53/1/67
f 55/1/68 142/1/68 140/1/68 54/1/68
f 121/1/69 123/1/69 23/1/69 24/1/69
f 119/1/69 121/1/69 24/1/69 25/1/69
f 117/1/69 119/1/69 25/1/69 26/1/69
f 115/1/69 117/1/69 26/1/69 27/1/69
f 113/1/69 115/1/69 27/1/69 28/1/69
f 111/1/69 113/1/69 28/1/69 29/1/69
f 109/1/69 111/1/69 29/1/69 30/1/69
f 107/1/69 109/1/69 30/1/69 31/1/69
f 105/1/69 107/1/69 31/1/69 32/1/69
f 103/1/69 105/1/69 32/1/69 33/1/69
f 101/1/69 103/1/69 33/1/69 2/1/69
f 172/1/69 101/1/69 2/1/69 173/1/69
f 123/1/69 125/1/69 22/1/69 23/1/69
f 175/1/69 1/1/69 165/1/69 174/1/69
f 163/1/69 165/1/69 1/1/69 3/1/69
f 161/1/69 163/1/69 3/1/69 4/1/69
f 159/1/69 161/1/69 4/1/69 5/1/69
f 157/1/69 159/1/69 5/1/69 6/1/69
f 155/1/69 157/1/69 6/1/69 7/1/69
f 153/1/69 155/1/69 7/1/69 8/1/69
f 151/1/69 153/1/69 8/1/69 9/1/69
f 149/1/69 151/1/69 9/1/69 10/1/69
f 147/1/69 149/1/69 10/1/69 11/1/69
f 145/1/69 147/1/69 11/1/69 12/1/69
f 143/1/69 145/1/69 12/1/69 13/1/69
f 141/1/69 143/1/69 13/1/69 14/1/69
f 139/1/69 141/1/69 14/1/69 15/1/69
f 137/1/69 139/1/69 15/1/69 16/1/69
f 135/1/69 137/1/69 16/1/69 17/1/69
f 133/1/69 135/1/69 17/1/69 18/1/69
f 131/1/69 133/1/69 18/1/69 19/1/69
f 129/1/69 131/1/69 19/1/69 20/1/69
f 127/1/69 129/1/69 20/1/69 21/1/69
f 125/1/69 127/1/69 21/1/69 22/1/69
f 100/1/1 101/1/1 172/1/1 171/1/1
f 100/1/70 102/1/70 103/1/70 101/1/70
f 102/1/71 104/1/71 105/1/71 103/1/71
f 104/1/72 106/1/72 107/1/72 105/1/72
f 106/1/73 108/1/73 109/1/73 107/1/73
f 108/1/74 110/1/74 111/1/74 109/1/74
f 110/1/75 112/1/75 113/1/75 111/1/75
f 112/1/76 114/1/76 115/1/76 113/1/76
f 114/1/77 116/1/77 117/1/77 115/1/77
f 116/1/78 118/1/78 119/1/78 117/1/78
f 118/1/79 120/1/79 121/1/79 119/1/79
f 120/1/80 122/1/80 123/1/80 121/1/80
f 122/1/81 124/1/81 125/1/81 123/1/81
f 124/1/82 126/1/82 127/1/82 125/1/82
f 126/1/83 128/1/83 129/1/83 127/1/83
f 128/1/84 130/1/84 131/1/84 129/1/84
f 130/1/85 132/1/85 133/1/85 131/1/85
f 132/1/86 134/1/86 135/1/86 133/1/86
f 134/1/87 136/1/87 137/1/87 135/1/87
f 136/1/88 138/1/88 139/1/88 137/1/88
f 138/1/89 140/1/89 141/1/89 139/1/89
f 140/1/90 142/1/90 143/1/90 141/1/90
f 142/1/91 144/1/91 145/1/91 143/1/91
f 144/1/92 146/1/92 147/1/92 145/1/92
f 146/1/93 148/1/93 149/1/93 147/1/93
f 148/1/94 150/1/94 151/1/94 149/1/94
f 150/1/95 152/1/95 153/1/95 151/1/95
f 152/1/96 154/1/96 155/1/96 153/1/96
f 154/1/97 156/1/97 157/1/97 155/1/97
f 156/1/98 158/1/98 159/1/98 157/1/98
f 158/1/99 160/1/99 161/1/99 159/1/99
f 160/1/100 162/1/100 163/1/100 161/1/100
f 162/1/101 164/1/101 165/1/101 163/1/101
f 174/1/34 165/1/34 164/1/34 170/1/34
f 2/1/102 67/1/102 167/1/102 173/1/102
f 2/1/103 33/1/103 68/1/103 67/1/103
f 33/1/104 32/1/104 69/1/104 68/1/104
f 32/1/105 31/1/105 70/1/105 69/1/105
f 31/1/106 30/1/106 71/1/106 70/1/106
f 30/1/107 29/1/107 72/1/107 71/1/107
f 29/1/108 28/1/108 73/1/108 72/1/108
f 28/1/109 27/1/109 74/1/109 73/1/109
f 27/1/110 26/1/110 75/1/110 74/1/110
f 26/1/111 25/1/111 76/1/111 75/1/111
f 25/1/112 24/1/112 77/1/112 76/1/112
f 24/1/113 23/1/113 78/1/113 77/1/113
f 23/1/114 22/1/114 79/1/114 78/1/114
f 22/1/115 21/1/115 80/1/115 79/1/115
f 21/1/116 20/1/116 81/1/116 80/1/116
f 20/1/117 19/1/117 82/1/117 81/1/117
f 19/1/118 18/1/118 83/1/118 82/1/118
f 18/1/119 17/1/119 84/1/119 83/1/119
f 17/1/120 16/1/120 85/1/120 84/1/120
f 16/1/121 15/1/121 86/1/121 85/1/121
f 15/1/122 14/1/122 87/1/122 86/1/122
f 14/1/123 13/1/123 88/1/123 87/1/123
f 13/1/124 12/1/124 89/1/124 88/1/124
f 12/1/125 11/1/125 90/1/125 89/1/125
f 11/1/126 10/1/126 91/1/126 90/1/126
f 10/1/127 9/1/127 92/1/127 91/1/127
f 9/1/128 8/1/128 93/1/128 92/1/128
f 8/1/129 7/1/129 94/1/129 93/1/129
f 7/1/130 6/1/130 95/1/130 94/1/130
f 6/1/131 5/1/131 96/1/131 95/1/131
f 5/1/132 4/1/132 97/1/132 96/1/132
f 4/1/133 3/1/133 98/1/133 97/1/133
f 3/1/134 1/1/134 99/1/134 98/1/134
f 99/1/135 1/1/135 175/1/135 169/1/135
